<?xml version="1.0" encoding="UTF-8"?>
<svg width="640" height="640" version="1.1" viewBox="0 0 158.74999 158.75" xmlns="http://www.w3.org/2000/svg" xmlns:cc="http://creativecommons.org/ns#" xmlns:dc="http://purl.org/dc/elements/1.1/" xmlns:rdf="http://www.w3.org/1999/02/22-rdf-syntax-ns#"><title>Cyklus Watch Face Layout</title><metadata><rdf:RDF><cc:Work rdf:about=""><dc:format>image/svg+xml</dc:format><dc:type rdf:resource="http://purl.org/dc/dcmitype/StillImage"/><dc:title>Cyklus Watch Face Layout</dc:title><dc:creator><cc:Agent><dc:title>René Puls</dc:title></cc:Agent></dc:creator><dc:description>640x640 px at 320 ppi
1 dp = 2 px</dc:description></cc:Work></rdf:RDF></metadata><g transform="translate(3.4422e-6 -138.25)"><ellipse cx="79.383" cy="217.62" rx="79.246" ry="79.246" fill="#212121" stroke="#000" stroke-width=".27225"/></g><g transform="translate(3.4422e-6 -10.583)"><g fill="#ffa726"><path d="m61.144 20.923a71.437 71.437 0 0 1 17.991 -2.4v-7.9335a79.374 79.374 0 0 0 -20.027 2.7362z"/><path d="m79.631 18.554a71.437 71.437 0 0 1 17.999 2.3382l2.0534-7.6632a79.374 79.374 0 0 0 -20.052 -2.5403z"/><path d="m98.101 21.051a71.437 71.437 0 0 1 16.781 6.917l3.9668-6.8706a79.374 79.374 0 0 0 -18.712 -7.6437z"/><path d="m115.3 28.243a71.437 71.437 0 0 1 14.419 11.024l5.6099-5.6099a79.374 79.374 0 0 0 -16.096 -12.226z"/><path d="m130.04 39.641a71.437 71.437 0 0 1 11.074 14.381l6.8706-3.9668a79.374 79.374 0 0 0 -12.383 -15.975z"/><path d="m141.34 54.467a71.437 71.437 0 0 1 6.9746 16.757l7.6632-2.0533a79.374 79.374 0 0 0 -7.8263 -18.636z"/><path d="m148.41 71.711a71.437 71.437 0 0 1 2.4 17.991l7.9335 2e-6a79.374 79.374 0 0 0 -2.7362 -20.027z"/></g><path d="m149.5 103.3a71.437 71.437 0 0 1 -1.0547 4.8964l7.6632 2.0532a79.374 79.374 0 0 0 1.1312 -5.4759z" fill="#616161"/><path d="m149.5 103.3 7.7398 1.4737a79.374 79.374 0 0 0 1.4088 -14.576h-7.8652a71.437 71.437 0 0 1 -1.2833 13.103z" fill="#ffa726"/><g fill="#616161"><path d="m148.28 108.67a71.437 71.437 0 0 1 -6.917 16.781l6.8706 3.9668a79.374 79.374 0 0 0 7.6437 -18.712z"/><path d="m141.09 125.86a71.437 71.437 0 0 1 -11.024 14.419l5.6098 5.6098a79.374 79.374 0 0 0 12.226 -16.096z"/><path d="m129.69 140.61a71.437 71.437 0 0 1 -14.381 11.074l3.9668 6.8706a79.374 79.374 0 0 0 15.975 -12.383z"/><path d="m114.87 151.9a71.437 71.437 0 0 1 -16.757 6.9747l2.0533 7.6632a79.374 79.374 0 0 0 18.636 -7.8263z"/><path d="m97.622 158.98a71.437 71.437 0 0 1 -17.991 2.4v7.9335a79.374 79.374 0 0 0 20.027 -2.7362z"/><path d="m79.135 161.35a71.437 71.437 0 0 1 -17.999 -2.3381l-2.0533 7.6632a79.374 79.374 0 0 0 20.052 2.5403z"/><path d="m60.665 158.85a71.437 71.437 0 0 1 -16.781 -6.917l-3.9668 6.8706a79.374 79.374 0 0 0 18.712 7.6437z"/><path d="m43.47 151.66a71.437 71.437 0 0 1 -14.419 -11.024l-5.6098 5.6098a79.374 79.374 0 0 0 16.096 12.226z"/><path d="m28.723 140.26a71.437 71.437 0 0 1 -11.074 -14.381l-6.8706 3.9668a79.374 79.374 0 0 0 12.383 15.975z"/><path d="m17.428 125.43a71.437 71.437 0 0 1 -6.9747 -16.757l-7.6632 2.0533a79.374 79.374 0 0 0 7.8263 18.636z"/><path d="m10.356 108.19a71.437 71.437 0 0 1 -2.4 -17.991l-7.9335-1e-6a79.374 79.374 0 0 0 2.7362 20.027z"/><path d="m8.2686 84.275-7.8594-0.62738a79.374 79.374 0 0 0 -0.28729 6.0548h7.8652a71.437 71.437 0 0 1 0.28147 -5.4274z"/></g><g fill="#ffa726"><path d="m2.6619 69.65a79.374 79.374 0 0 0 -2.2527 13.998l7.8594 0.62738a71.437 71.437 0 0 1 2.0565 -12.572z"/><path d="m10.484 71.232a71.437 71.437 0 0 1 6.917 -16.781l-6.8706-3.9668a79.374 79.374 0 0 0 -7.6437 18.712z"/><path d="m17.676 54.037a71.437 71.437 0 0 1 11.024 -14.419l-5.6098-5.6098a79.374 79.374 0 0 0 -12.226 16.096z"/><path d="m29.074 39.29a71.437 71.437 0 0 1 14.381 -11.074l-3.9668-6.8706a79.374 79.374 0 0 0 -15.975 12.383z"/><path d="m43.9 27.996a71.437 71.437 0 0 1 16.757 -6.9747l-2.0533-7.6632a79.374 79.374 0 0 0 -18.636 7.8263z"/></g></g><g transform="translate(3.4422e-6 -10.583)" fill="#fff"><g stroke-width="1.0667"><g transform="matrix(.49609 0 0 .52735 -45.157 -12.77)"><path d="m315.7 293.88c0.24981-0.18811 0.52028-0.34719 0.80618-0.47416l0.0126-5e-3c1.3505-0.58566 3.5659-0.38832 4.8145 0.47618 1.0784-0.7198 3.2388-0.93898 4.5697 0.0199 1.2261-0.87039 3.6278-1.0818 4.9782-0.4961l0.0126 5e-3c0.2859 0.12697 0.55637 0.28605 0.80618 0.47416-0.0636-3.0239-4.149-6.1595-8.0087-6.892-3.9486 0.6978-7.9278 3.8681-7.9913 6.892z"/><g transform="matrix(.19777 0 0 .19777 251.35 236.02)" shape-rendering="auto"><path d="m365.68 292.89a2.0002 2.0002 0 0 0 -1.9688 2.0293v33.67a2.0002 2.0002 0 1 0 4 0v-33.67a2.0002 2.0002 0 0 0 -2.0312 -2.0293z" color="#000000" color-rendering="auto" fill-rule="evenodd" image-rendering="auto" solid-color="#000000" style="isolation:auto;mix-blend-mode:normal;text-decoration-color:#000000;text-decoration-line:none;text-decoration-style:solid;text-indent:0;text-transform:none;white-space:normal"/><path d="m358.6 326.42a2.0002 2.0002 0 0 0 -1.9043 2.0879c0.0915 2.8993 2.4772 5.2522 5.377 5.3106 2.8998 0.0583 5.3794-2.1966 5.5879-5.0898a2.0003 2.0003 0 1 0 -3.9902 -0.28711c-0.0581 0.80618-0.70029 1.3953-1.5156 1.3789-0.81533-0.0164-1.4354-0.62966-1.4609-1.4375a2.0002 2.0002 0 0 0 -2.0938 -1.9629z" color="#000000" color-rendering="auto" image-rendering="auto" solid-color="#000000" style="isolation:auto;mix-blend-mode:normal;text-decoration-color:#000000;text-decoration-line:none;text-decoration-style:solid;text-indent:0;text-transform:none;white-space:normal"/></g></g><g transform="matrix(.20888 0 0 .20888 14.188 71.96)"><path d="m0 0h24v24h-24z" fill="none" stroke-width="1.0667"/><path d="m38-7.1003-8.28-6.8997l-2.322 2.7349 8.28 6.8997zm-25.416-4.1648-2.304-2.7349-8.28 6.8818 2.322 2.7349zm8.316 8.2403h-2.7v10.725l8.55 5.0943 1.35-2.1986-7.2-4.2363zm-0.9-7.15c-8.946 0-16.2 7.2036-16.2 16.087 0 8.8838 7.236 16.087 16.2 16.087 8.946 0 16.2-7.2036 16.2-16.087 0-8.8838-7.254-16.087-16.2-16.087zm0 28.6c-6.966 0-12.6-5.5948-12.6-12.512 0-6.9176 5.634-12.512 12.6-12.512s12.6 5.5948 12.6 12.512c0 6.9176-5.634 12.512-12.6 12.512z" stroke-width="1.9133"/></g><g transform="matrix(.33073 0 0 .33073 139.23 91.582)"><path d="m17 12h-5v5h5zm-1-11v2h-8v-2h-2v2h-1c-1.11 0-1.99 0.9-1.99 2l-0.01 14c0 1.1 0.89 2 2 2h14c1.1 0 2-0.9 2-2v-14c0-1.1-0.9-2-2-2h-1v-2zm3 18h-14v-11h14z"/><path d="m0 0h24v24h-24z" fill="none"/></g></g><g><g aria-label="9°"><path d="m32.051 133.07q-0.54776 0.69762-1.2816 0.69762-0.82164 0-1.3074-0.69245-0.48575-0.69246-0.48575-1.8138 0-1.1782 0.52709-1.8913 0.53226-0.71313 1.4469-0.71313 0.95084 0 1.4831 0.82681 0.53743 0.82165 0.53743 2.2789v0.28422q0 1.2506-0.1912 2.0257-0.18603 0.77514-0.55293 1.2506-0.3669 0.47542-0.93533 0.72347-0.56844 0.24287-1.4211 0.24287v-0.80614h0.1602q0.97151-0.0207 1.4728-0.5891 0.50642-0.57361 0.54776-1.8242zm-1.1265-0.093q0.33072 0 0.64595-0.27388 0.31522-0.27905 0.49092-0.72863v-0.40307q0-0.93533-0.32556-1.5244-0.32556-0.59427-0.78547-0.59427-0.49609 0-0.79064 0.49092-0.28938 0.48575-0.28938 1.2661 0 0.7803 0.28422 1.2764 0.28422 0.49092 0.76997 0.49092z"/><path d="m34.34 130q0-0.53743 0.3824-0.9405 0.38757-0.40307 0.93533-0.40307 0.53743 0 0.91466 0.40307 0.3824 0.39791 0.3824 0.9405 0 0.54777-0.3824 0.93534-0.37723 0.38756-0.91466 0.38756-0.5426 0-0.93017-0.38756-0.38757-0.38757-0.38757-0.93534zm1.3177 0.66145q0.27905 0 0.47025-0.18086 0.1912-0.18604 0.1912-0.48059 0-0.29972-0.1912-0.49092-0.1912-0.19637-0.47025-0.19637-0.28422 0-0.48059 0.20671-0.1912 0.20153-0.1912 0.48058t0.1912 0.47025q0.19637 0.1912 0.48059 0.1912z"/></g><g aria-label="12°"><path d="m55.939 34.121h-0.91983v-6.3716l-1.5813 0.70796v-0.86815l2.3564-1.0284h0.14469z"/><path d="m62.651 34.121h-4.2064v-0.68729l2.1445-2.8422q0.48575-0.65628 0.67179-1.0749 0.1912-0.42374 0.1912-0.89399 0-0.59944-0.27905-0.9715-0.27905-0.37207-0.7338-0.37207-0.5736 0-0.88882 0.3979-0.31006 0.39274-0.31006 1.1369h-0.91466q0-1.0387 0.56843-1.6795 0.56844-0.64078 1.5451-0.64078 0.89916 0 1.4159 0.55293 0.51676 0.54776 0.51676 1.4624 0 1.1162-1.1627 2.6406l-1.6743 2.1911h3.1161z"/><path d="m63.742 27.837q0-0.53743 0.3824-0.9405 0.38757-0.40307 0.93533-0.40307 0.53743 0 0.91466 0.40307 0.3824 0.3979 0.3824 0.9405 0 0.54776-0.3824 0.93533-0.37723 0.38757-0.91466 0.38757-0.5426 0-0.93016-0.38757-0.38757-0.38757-0.38757-0.93533zm1.3177 0.66145q0.27905 0 0.47025-0.18086 0.1912-0.18603 0.1912-0.48058 0-0.29972-0.1912-0.49092-0.1912-0.19637-0.47025-0.19637-0.28422 0-0.48058 0.2067-0.1912 0.20154-0.1912 0.48059 0 0.27905 0.1912 0.47025 0.19637 0.1912 0.48058 0.1912z"/></g><g aria-label="16°"><path d="m133.83 69.563h-0.91983v-6.3716l-1.5813 0.70796v-0.86816l2.3564-1.0283h0.1447z"/><path d="m139.52 62.033v0.81131h-0.14986q-0.91467 0.02067-1.4314 0.62011-0.51676 0.59427-0.59428 1.7932 0.50126-0.63044 1.2816-0.63044 0.83199 0 1.3177 0.68729 0.49092 0.68212 0.49092 1.7932 0 1.1834-0.5426 1.8707-0.53743 0.68729-1.4469 0.68729-0.91466 0-1.4728-0.81131-0.5581-0.81131-0.5581-2.1549v-0.3669q0-1.5503 0.33589-2.4701 0.33589-0.91983 0.98701-1.3642 0.65628-0.44958 1.6278-0.46508zm-1.049 3.3899q-0.37207 0-0.68729 0.28422t-0.45475 0.72346v0.37723q0 0.91466 0.32039 1.4934 0.32556 0.5736 0.79581 0.5736 0.51159 0 0.80097-0.47025 0.28939-0.47542 0.28939-1.2506 0-0.7648-0.28939-1.2454-0.28938-0.48575-0.77513-0.48575z"/><path d="m141.63 63.279q0-0.53743 0.3824-0.9405 0.38757-0.40307 0.93533-0.40307 0.53743 0 0.91467 0.40307 0.3824 0.3979 0.3824 0.9405 0 0.54776-0.3824 0.93533-0.37724 0.38757-0.91467 0.38757-0.54259 0-0.93016-0.38757t-0.38757-0.93533zm1.3177 0.66145q0.27905 0 0.47025-0.18086 0.1912-0.18603 0.1912-0.48059 0-0.29972-0.1912-0.49092-0.1912-0.19637-0.47025-0.19637-0.28421 0-0.48058 0.2067-0.1912 0.20154-0.1912 0.48058 0 0.27905 0.1912 0.47025 0.19637 0.1912 0.48058 0.1912z"/></g></g></g><g transform="translate(3.4422e-6 -10.583)"><rect transform="rotate(-17.522)" x="44.649" y="28.319" width="3.9687" height="11.906" fill="#fff" stroke="#000" stroke-width=".39502"/></g><g transform="translate(3.4422e-6 -10.583)"><g fill="#fff" aria-label="10"><path d="m55.331 105.81h-2.5669v-28.065l-8.4707 3.1444v-2.3958l10.61-3.9359h0.42781z"/><path d="m86.497 92.826q0 6.5883-2.4171 10.011-2.4171 3.4011-7.1231 3.4011-4.6204 0-7.0803-3.3369-2.4599-3.3583-2.5241-9.7541v-5.583q0-6.5669 2.4385-9.9466t7.1231-3.3797q4.6204 0 7.0589 3.2728 2.4385 3.2514 2.5241 9.6044zm-2.5669-5.583q0-5.3477-1.754-8.0857-1.7326-2.738-5.2621-2.738-3.4653 0-5.2193 2.6738t-1.7968 7.8931v6.1177q0 5.3263 1.7968 8.1498 1.8182 2.8236 5.2621 2.8236 3.4225 0 5.1765-2.7594 1.7754-2.7594 1.7968-8.0857z"/></g><g fill="#fff" aria-label="45"><path d="m101.84 82.667h1.7615v1.3168h-1.7615v2.9475h-1.622v-2.9475h-5.7816v-0.95051l5.6856-8.7988h1.7179zm-5.5723 0h3.9503v-6.2263l-0.19185 0.34881z"/><path d="m105.82 80.565 0.6453-6.3309h6.5054v1.4912h-5.1363l-0.38369 3.462q0.93307-0.54938 2.119-0.54938 1.7353 0 2.7556 1.1511 1.0203 1.1424 1.0203 3.0957 0 1.9621-1.0639 3.0957-1.0552 1.1249-2.9562 1.1249-1.683 0-2.7469-0.93307-1.0639-0.93307-1.2121-2.5812h1.5261q0.14824 1.09 0.7761 1.6481 0.62787 0.54938 1.6569 0.54938 1.1249 0 1.7615-0.76739 0.6453-0.76739 0.6453-2.119 0-1.2732-0.69762-2.0406-0.6889-0.77611-1.84-0.77611-1.0552 0-1.6569 0.46218l-0.4273 0.34881z"/></g><g fill="#ffa726" aria-label="23"><path d="m103.97 105.64h-8.3192v-1.1598l4.395-4.8834q0.97667-1.1075 1.3429-1.7964 0.37497-0.69762 0.37497-1.4388 0-0.99411-0.6017-1.6307t-1.6045-0.63658q-1.2034 0-1.8749 0.6889-0.66274 0.68018-0.66274 1.901h-1.6133q0-1.7528 1.1249-2.8341 1.1336-1.0813 3.0259-1.0813 1.7702 0 2.7992 0.93307 1.029 0.92435 1.029 2.4678 0 1.8749-2.3894 4.4648l-3.4009 3.6887h6.3745z"/><path d="m108.04 98.511h1.2121q1.1424-0.01744 1.7964-0.6017 0.65402-0.58426 0.65402-1.5784 0-2.2324-2.2237-2.2324-1.0464 0-1.6743 0.6017-0.61914 0.59298-0.61914 1.5784h-1.6133q0-1.5086 1.0988-2.5027 1.1075-1.0028 2.8079-1.0028 1.7964 0 2.8166 0.95051 1.0203 0.95051 1.0203 2.6423 0 0.82843-0.54066 1.6045-0.53194 0.77611-1.4563 1.1598 1.0464 0.33137 1.6132 1.0988 0.57554 0.76738 0.57554 1.8749 0 1.7092-1.1162 2.712-1.1162 1.0028-2.9039 1.0028-1.7877 0-2.9126-0.96795-1.1162-0.96796-1.1162-2.555h1.622q0 1.0028 0.65403 1.6045 0.65402 0.6017 1.7528 0.6017 1.1685 0 1.7877-0.61042t0.61914-1.7528q0-1.1075-0.68018-1.7005-0.68019-0.59298-1.9621-0.61042h-1.2121z"/></g></g><g transform="translate(3.4422e-6 -10.583)"><g fill="#fff" aria-label="FRI 8"><path d="m72.357 62.584h-3.1574v3.3228h-0.99218v-7.524h4.6612v0.81648h-3.669v2.5735h3.1574z"/><path d="m76.817 62.863h-1.7673v3.0437h-0.99734v-7.524h2.4908q1.2712 0 1.9533 0.57877 0.68729 0.57877 0.68729 1.6846 0 0.70279-0.3824 1.2247-0.37723 0.52193-1.0542 0.7803l1.7673 3.1936v0.06201h-1.0645zm-1.7673-0.81131h1.5244q0.73896 0 1.173-0.3824 0.43924-0.3824 0.43924-1.0232 0-0.69762-0.41858-1.0697-0.41341-0.37207-1.1989-0.37723h-1.5193z"/><path d="m81.633 65.907h-0.99218v-7.524h0.99218z"/><path d="m90.382 60.347q0 0.56327-0.29972 1.0025-0.29455 0.43924-0.80098 0.68729 0.5891 0.25321 0.93016 0.73896 0.34623 0.48575 0.34623 1.1007 0 0.97667-0.66145 1.5554-0.65628 0.57877-1.7311 0.57877-1.0852 0-1.7415-0.57877-0.65112-0.58394-0.65112-1.5554 0-0.60978 0.33072-1.1007 0.33589-0.49092 0.925-0.74413-0.50126-0.24804-0.79064-0.68729-0.28938-0.43924-0.28938-0.99734 0-0.95084 0.60978-1.5089t1.6071-0.5581q0.99218 0 1.602 0.5581 0.61494 0.5581 0.61494 1.5089zm-0.7803 3.5088q0-0.63045-0.40307-1.0284-0.3979-0.3979-1.0439-0.3979t-1.0387 0.39274q-0.38757 0.39274-0.38757 1.0335 0 0.64078 0.37723 1.0077 0.3824 0.3669 1.0594 0.3669 0.67179 0 1.0542-0.3669 0.3824-0.37207 0.3824-1.0077zm-1.4366-4.7904q-0.56327 0-0.91466 0.3514-0.34623 0.34623-0.34623 0.94567 0 0.5736 0.34106 0.93017 0.34623 0.3514 0.91983 0.3514 0.5736 0 0.91466-0.3514 0.34623-0.35656 0.34623-0.93017t-0.35656-0.93533q-0.35656-0.36173-0.90433-0.36173z"/></g></g><g transform="translate(3.4422e-6 -10.583)" display="none"><text x="79.06736" y="121.32613" display="inline" fill="#ffffff" font-family="Roboto" font-size="13.229px" letter-spacing="0px" stroke-width=".56167" word-spacing="0px" style="line-height:13.16396141px" xml:space="preserve"><tspan x="79.06736" y="121.32613" fill="#ffffff" font-family="'Roboto Condensed'" font-size="10.583px" stroke-width=".56167" text-align="center" text-anchor="middle" style="line-height:10.18717098px">PARTLY CLOUDY</tspan></text></g><g transform="translate(3.4422e-6 -10.583)" display="none" fill="none" stroke="#36c"><rect x="43.863" y="74.275" width="71.039" height="31.352" display="inline" stroke-dasharray="0.84848223, 1.69696442" stroke-width=".42424"/><ellipse cx="79.383" cy="89.951" rx="55.562" ry="55.562" display="inline" stroke-dasharray="1.05833333, 2.11666666" stroke-width=".52917"/><g><rect x="44.007" y="58.543" width="71.094" height="7.5951" stroke-dasharray="0.73028362, 1.46056725" stroke-width=".36514"/><rect x="43.664" y="113.76" width="71.501" height="19.844" stroke-dasharray="1.05833335, 2.11666671" stroke-width=".52917"/><rect x="67.476" y="113.78" width="23.812" height="23.791" stroke-dasharray="1.05833335, 2.11666669" stroke-width=".52917"/></g></g></svg>
